<?xml version="1.0" encoding="UTF-8" standalone="no"?>
<svg id="svg2" xmlns="http://www.w3.org/2000/svg" version="1.1" width="19" height="18" viewBox="0 0 19 18">
<rect width="1" height="1" x="3" y="0" fill-opacity="0.05" />
<rect width="1" height="1" x="4" y="0" fill-opacity="0.31" />
<rect width="1" height="1" x="5" y="0" fill-opacity="0.35" />
<rect width="1" height="1" x="6" y="0" fill-opacity="0.37" />
<rect width="1" height="1" x="7" y="0" fill-opacity="0.37" />
<rect width="1" height="1" x="8" y="0" fill-opacity="0.37" />
<rect width="1" height="1" x="9" y="0" fill-opacity="0.37" />
<rect width="1" height="1" x="10" y="0" fill-opacity="0.37" />
<rect width="1" height="1" x="11" y="0" fill-opacity="0.36" />
<rect width="1" height="1" x="12" y="0" fill-opacity="0.33" />
<rect width="1" height="1" x="13" y="0" fill-opacity="0.15" />
<rect width="1" height="1" x="2" y="1" fill-opacity="0.10" />
<rect width="1" height="1" x="3" y="1" fill-opacity="0.70" />
<rect width="1" height="1" x="4" y="1" fill-opacity="1.00" />
<rect width="1" height="1" x="5" y="1" fill-opacity="0.97" />
<rect width="1" height="1" x="6" y="1" fill-opacity="0.84" />
<rect width="1" height="1" x="7" y="1" fill-opacity="0.84" />
<rect width="1" height="1" x="8" y="1" fill-opacity="0.84" />
<rect width="1" height="1" x="9" y="1" fill-opacity="0.84" />
<rect width="1" height="1" x="10" y="1" fill-opacity="0.84" />
<rect width="1" height="1" x="11" y="1" fill-opacity="0.86" />
<rect width="1" height="1" x="12" y="1" fill-opacity="1.00" />
<rect width="1" height="1" x="13" y="1" fill-opacity="0.49" />
<rect width="1" height="1" x="1" y="2" fill-opacity="0.16" />
<rect width="1" height="1" x="2" y="2" fill-opacity="0.77" />
<rect width="1" height="1" x="3" y="2" fill-opacity="1.00" />
<rect width="1" height="1" x="4" y="2" fill-opacity="1.00" />
<rect width="1" height="1" x="5" y="2" fill-opacity="0.62" />
<rect width="1" height="1" x="6" y="2" fill-opacity="0.08" />
<rect width="1" height="1" x="7" y="2" fill-opacity="0.08" />
<rect width="1" height="1" x="8" y="2" fill-opacity="0.08" />
<rect width="1" height="1" x="9" y="2" fill-opacity="0.08" />
<rect width="1" height="1" x="10" y="2" fill-opacity="0.08" />
<rect width="1" height="1" x="11" y="2" fill-opacity="0.13" />
<rect width="1" height="1" x="12" y="2" fill-opacity="0.93" />
<rect width="1" height="1" x="13" y="2" fill-opacity="0.48" />
<rect width="1" height="1" x="0" y="3" fill-opacity="0.20" />
<rect width="1" height="1" x="1" y="3" fill-opacity="0.84" />
<rect width="1" height="1" x="2" y="3" fill-opacity="1.00" />
<rect width="1" height="1" x="3" y="3" fill-opacity="1.00" />
<rect width="1" height="1" x="4" y="3" fill-opacity="1.00" />
<rect width="1" height="1" x="5" y="3" fill-opacity="0.58" />
<rect width="1" height="1" x="11" y="3" fill-opacity="0.03" />
<rect width="1" height="1" x="12" y="3" fill-opacity="0.91" />
<rect width="1" height="1" x="13" y="3" fill-opacity="0.48" />
<rect width="1" height="1" x="0" y="4" fill-opacity="0.74" />
<rect width="1" height="1" x="1" y="4" fill-opacity="1.00" />
<rect width="1" height="1" x="2" y="4" fill-opacity="1.00" />
<rect width="1" height="1" x="3" y="4" fill-opacity="1.00" />
<rect width="1" height="1" x="4" y="4" fill-opacity="1.00" />
<rect width="1" height="1" x="5" y="4" fill-opacity="0.62" />
<rect width="1" height="1" x="11" y="4" fill-opacity="0.05" />
<rect width="1" height="1" x="12" y="4" fill-opacity="0.94" />
<rect width="1" height="1" x="13" y="4" fill-opacity="0.50" />
<rect width="1" height="1" x="0" y="5" fill-opacity="0.81" />
<rect width="1" height="1" x="1" y="5" fill-opacity="0.82" />
<rect width="1" height="1" x="2" y="5" fill-opacity="0.42" />
<rect width="1" height="1" x="3" y="5" fill-opacity="0.46" />
<rect width="1" height="1" x="4" y="5" fill-opacity="0.47" />
<rect width="1" height="1" x="5" y="5" fill-opacity="0.27" />
<rect width="1" height="1" x="11" y="5" fill-opacity="0.04" />
<rect width="1" height="1" x="12" y="5" fill-opacity="0.60" />
<rect width="1" height="1" x="13" y="5" fill-opacity="0.32" />
<rect width="1" height="1" x="0" y="6" fill-opacity="0.84" />
<rect width="1" height="1" x="1" y="6" fill-opacity="0.64" />
<rect width="1" height="1" x="0" y="7" fill-opacity="0.84" />
<rect width="1" height="1" x="1" y="7" fill-opacity="0.65" />
<rect width="1" height="1" x="11" y="7" fill-opacity="0.26" />
<rect width="1" height="1" x="12" y="7" fill-opacity="0.49" />
<rect width="1" height="1" x="13" y="7" fill-opacity="0.50" />
<rect width="1" height="1" x="14" y="7" fill-opacity="0.20" />
<rect width="1" height="1" x="0" y="8" fill-opacity="0.84" />
<rect width="1" height="1" x="1" y="8" fill-opacity="0.65" />
<rect width="1" height="1" x="11" y="8" fill-opacity="0.58" />
<rect width="1" height="1" x="12" y="8" fill-opacity="1.00" />
<rect width="1" height="1" x="13" y="8" fill-opacity="1.00" />
<rect width="1" height="1" x="14" y="8" fill-opacity="0.44" />
<rect width="1" height="1" x="0" y="9" fill-opacity="0.84" />
<rect width="1" height="1" x="1" y="9" fill-opacity="0.65" />
<rect width="1" height="1" x="11" y="9" fill-opacity="0.55" />
<rect width="1" height="1" x="12" y="9" fill-opacity="1.00" />
<rect width="1" height="1" x="13" y="9" fill-opacity="1.00" />
<rect width="1" height="1" x="14" y="9" fill-opacity="0.41" />
<rect width="1" height="1" x="0" y="10" fill-opacity="0.84" />
<rect width="1" height="1" x="1" y="10" fill-opacity="0.65" />
<rect width="1" height="1" x="11" y="10" fill-opacity="0.52" />
<rect width="1" height="1" x="12" y="10" fill-opacity="1.00" />
<rect width="1" height="1" x="13" y="10" fill-opacity="1.00" />
<rect width="1" height="1" x="14" y="10" fill-opacity="0.38" />
<rect width="1" height="1" x="0" y="11" fill-opacity="0.84" />
<rect width="1" height="1" x="1" y="11" fill-opacity="0.65" />
<rect width="1" height="1" x="7" y="11" fill-opacity="0.38" />
<rect width="1" height="1" x="8" y="11" fill-opacity="0.74" />
<rect width="1" height="1" x="9" y="11" fill-opacity="0.69" />
<rect width="1" height="1" x="10" y="11" fill-opacity="0.69" />
<rect width="1" height="1" x="11" y="11" fill-opacity="0.86" />
<rect width="1" height="1" x="12" y="11" fill-opacity="1.00" />
<rect width="1" height="1" x="13" y="11" fill-opacity="1.00" />
<rect width="1" height="1" x="14" y="11" fill-opacity="0.82" />
<rect width="1" height="1" x="15" y="11" fill-opacity="0.69" />
<rect width="1" height="1" x="16" y="11" fill-opacity="0.69" />
<rect width="1" height="1" x="17" y="11" fill-opacity="0.71" />
<rect width="1" height="1" x="18" y="11" fill-opacity="0.33" />
<rect width="1" height="1" x="0" y="12" fill-opacity="0.84" />
<rect width="1" height="1" x="1" y="12" fill-opacity="0.65" />
<rect width="1" height="1" x="7" y="12" fill-opacity="0.57" />
<rect width="1" height="1" x="8" y="12" fill-opacity="1.00" />
<rect width="1" height="1" x="9" y="12" fill-opacity="1.00" />
<rect width="1" height="1" x="10" y="12" fill-opacity="1.00" />
<rect width="1" height="1" x="11" y="12" fill-opacity="1.00" />
<rect width="1" height="1" x="12" y="12" fill-opacity="1.00" />
<rect width="1" height="1" x="13" y="12" fill-opacity="1.00" />
<rect width="1" height="1" x="14" y="12" fill-opacity="1.00" />
<rect width="1" height="1" x="15" y="12" fill-opacity="1.00" />
<rect width="1" height="1" x="16" y="12" fill-opacity="1.00" />
<rect width="1" height="1" x="17" y="12" fill-opacity="1.00" />
<rect width="1" height="1" x="18" y="12" fill-opacity="0.50" />
<rect width="1" height="1" x="0" y="13" fill-opacity="0.84" />
<rect width="1" height="1" x="1" y="13" fill-opacity="0.65" />
<rect width="1" height="1" x="7" y="13" fill-opacity="0.50" />
<rect width="1" height="1" x="8" y="13" fill-opacity="0.95" />
<rect width="1" height="1" x="9" y="13" fill-opacity="0.93" />
<rect width="1" height="1" x="10" y="13" fill-opacity="0.92" />
<rect width="1" height="1" x="11" y="13" fill-opacity="0.97" />
<rect width="1" height="1" x="12" y="13" fill-opacity="1.00" />
<rect width="1" height="1" x="13" y="13" fill-opacity="1.00" />
<rect width="1" height="1" x="14" y="13" fill-opacity="0.96" />
<rect width="1" height="1" x="15" y="13" fill-opacity="0.92" />
<rect width="1" height="1" x="16" y="13" fill-opacity="0.93" />
<rect width="1" height="1" x="17" y="13" fill-opacity="0.94" />
<rect width="1" height="1" x="18" y="13" fill-opacity="0.44" />
<rect width="1" height="1" x="0" y="14" fill-opacity="0.84" />
<rect width="1" height="1" x="1" y="14" fill-opacity="0.65" />
<rect width="1" height="1" x="7" y="14" fill-opacity="0.09" />
<rect width="1" height="1" x="8" y="14" fill-opacity="0.17" />
<rect width="1" height="1" x="9" y="14" fill-opacity="0.16" />
<rect width="1" height="1" x="10" y="14" fill-opacity="0.16" />
<rect width="1" height="1" x="11" y="14" fill-opacity="0.62" />
<rect width="1" height="1" x="12" y="14" fill-opacity="1.00" />
<rect width="1" height="1" x="13" y="14" fill-opacity="1.00" />
<rect width="1" height="1" x="14" y="14" fill-opacity="0.51" />
<rect width="1" height="1" x="15" y="14" fill-opacity="0.16" />
<rect width="1" height="1" x="16" y="14" fill-opacity="0.16" />
<rect width="1" height="1" x="17" y="14" fill-opacity="0.17" />
<rect width="1" height="1" x="18" y="14" fill-opacity="0.08" />
<rect width="1" height="1" x="0" y="15" fill-opacity="0.84" />
<rect width="1" height="1" x="1" y="15" fill-opacity="0.62" />
<rect width="1" height="1" x="11" y="15" fill-opacity="0.53" />
<rect width="1" height="1" x="12" y="15" fill-opacity="1.00" />
<rect width="1" height="1" x="13" y="15" fill-opacity="1.00" />
<rect width="1" height="1" x="14" y="15" fill-opacity="0.39" />
<rect width="1" height="1" x="0" y="16" fill-opacity="0.82" />
<rect width="1" height="1" x="1" y="16" fill-opacity="0.84" />
<rect width="1" height="1" x="2" y="16" fill-opacity="0.45" />
<rect width="1" height="1" x="3" y="16" fill-opacity="0.45" />
<rect width="1" height="1" x="4" y="16" fill-opacity="0.45" />
<rect width="1" height="1" x="5" y="16" fill-opacity="0.45" />
<rect width="1" height="1" x="6" y="16" fill-opacity="0.45" />
<rect width="1" height="1" x="7" y="16" fill-opacity="0.45" />
<rect width="1" height="1" x="8" y="16" fill-opacity="0.46" />
<rect width="1" height="1" x="9" y="16" fill-opacity="0.24" />
<rect width="1" height="1" x="11" y="16" fill-opacity="0.56" />
<rect width="1" height="1" x="12" y="16" fill-opacity="1.00" />
<rect width="1" height="1" x="13" y="16" fill-opacity="1.00" />
<rect width="1" height="1" x="14" y="16" fill-opacity="0.42" />
<rect width="1" height="1" x="0" y="17" fill-opacity="0.60" />
<rect width="1" height="1" x="1" y="17" fill-opacity="0.82" />
<rect width="1" height="1" x="2" y="17" fill-opacity="0.82" />
<rect width="1" height="1" x="3" y="17" fill-opacity="0.82" />
<rect width="1" height="1" x="4" y="17" fill-opacity="0.82" />
<rect width="1" height="1" x="5" y="17" fill-opacity="0.82" />
<rect width="1" height="1" x="6" y="17" fill-opacity="0.82" />
<rect width="1" height="1" x="7" y="17" fill-opacity="0.82" />
<rect width="1" height="1" x="8" y="17" fill-opacity="0.84" />
<rect width="1" height="1" x="9" y="17" fill-opacity="0.43" />
<rect width="1" height="1" x="11" y="17" fill-opacity="0.45" />
<rect width="1" height="1" x="12" y="17" fill-opacity="0.85" />
<rect width="1" height="1" x="13" y="17" fill-opacity="0.87" />
<rect width="1" height="1" x="14" y="17" fill-opacity="0.34" />
</svg>
