<?xml version="1.0" encoding="UTF-8" standalone="no"?>
<svg id="svg2" xmlns="http://www.w3.org/2000/svg" version="1.1" width="22" height="18" viewBox="0 0 22 18">
<rect width="1" height="1" x="13" y="0" fill-opacity="0.34" />
<rect width="1" height="1" x="14" y="0" fill-opacity="0.71" />
<rect width="1" height="1" x="15" y="0" fill-opacity="0.64" />
<rect width="1" height="1" x="16" y="0" fill-opacity="0.32" />
<rect width="1" height="1" x="12" y="1" fill-opacity="0.16" />
<rect width="1" height="1" x="13" y="1" fill-opacity="0.98" />
<rect width="1" height="1" x="14" y="1" fill-opacity="1.00" />
<rect width="1" height="1" x="15" y="1" fill-opacity="0.69" />
<rect width="1" height="1" x="16" y="1" fill-opacity="0.06" />
<rect width="1" height="1" x="3" y="2" fill-opacity="0.49" />
<rect width="1" height="1" x="4" y="2" fill-opacity="0.55" />
<rect width="1" height="1" x="5" y="2" fill-opacity="0.11" />
<rect width="1" height="1" x="12" y="2" fill-opacity="0.67" />
<rect width="1" height="1" x="13" y="2" fill-opacity="1.00" />
<rect width="1" height="1" x="14" y="2" fill-opacity="1.00" />
<rect width="1" height="1" x="15" y="2" fill-opacity="1.00" />
<rect width="1" height="1" x="16" y="2" fill-opacity="0.94" />
<rect width="1" height="1" x="17" y="2" fill-opacity="0.34" />
<rect width="1" height="1" x="3" y="3" fill-opacity="0.27" />
<rect width="1" height="1" x="4" y="3" fill-opacity="1.00" />
<rect width="1" height="1" x="5" y="3" fill-opacity="0.99" />
<rect width="1" height="1" x="6" y="3" fill-opacity="0.62" />
<rect width="1" height="1" x="7" y="3" fill-opacity="0.12" />
<rect width="1" height="1" x="11" y="3" fill-opacity="0.11" />
<rect width="1" height="1" x="12" y="3" fill-opacity="0.99" />
<rect width="1" height="1" x="13" y="3" fill-opacity="1.00" />
<rect width="1" height="1" x="14" y="3" fill-opacity="1.00" />
<rect width="1" height="1" x="15" y="3" fill-opacity="1.00" />
<rect width="1" height="1" x="16" y="3" fill-opacity="1.00" />
<rect width="1" height="1" x="17" y="3" fill-opacity="0.98" />
<rect width="1" height="1" x="18" y="3" fill-opacity="0.22" />
<rect width="1" height="1" x="4" y="4" fill-opacity="0.56" />
<rect width="1" height="1" x="5" y="4" fill-opacity="1.00" />
<rect width="1" height="1" x="6" y="4" fill-opacity="1.00" />
<rect width="1" height="1" x="7" y="4" fill-opacity="0.95" />
<rect width="1" height="1" x="8" y="4" fill-opacity="0.46" />
<rect width="1" height="1" x="9" y="4" fill-opacity="0.01" />
<rect width="1" height="1" x="11" y="4" fill-opacity="0.52" />
<rect width="1" height="1" x="12" y="4" fill-opacity="1.00" />
<rect width="1" height="1" x="13" y="4" fill-opacity="1.00" />
<rect width="1" height="1" x="14" y="4" fill-opacity="1.00" />
<rect width="1" height="1" x="15" y="4" fill-opacity="1.00" />
<rect width="1" height="1" x="16" y="4" fill-opacity="1.00" />
<rect width="1" height="1" x="17" y="4" fill-opacity="1.00" />
<rect width="1" height="1" x="18" y="4" fill-opacity="0.79" />
<rect width="1" height="1" x="3" y="5" fill-opacity="0.01" />
<rect width="1" height="1" x="4" y="5" fill-opacity="0.74" />
<rect width="1" height="1" x="5" y="5" fill-opacity="0.98" />
<rect width="1" height="1" x="6" y="5" fill-opacity="1.00" />
<rect width="1" height="1" x="7" y="5" fill-opacity="1.00" />
<rect width="1" height="1" x="8" y="5" fill-opacity="1.00" />
<rect width="1" height="1" x="9" y="5" fill-opacity="0.73" />
<rect width="1" height="1" x="10" y="5" fill-opacity="0.07" />
<rect width="1" height="1" x="11" y="5" fill-opacity="0.91" />
<rect width="1" height="1" x="12" y="5" fill-opacity="1.00" />
<rect width="1" height="1" x="13" y="5" fill-opacity="1.00" />
<rect width="1" height="1" x="14" y="5" fill-opacity="1.00" />
<rect width="1" height="1" x="15" y="5" fill-opacity="1.00" />
<rect width="1" height="1" x="16" y="5" fill-opacity="1.00" />
<rect width="1" height="1" x="17" y="5" fill-opacity="1.00" />
<rect width="1" height="1" x="18" y="5" fill-opacity="1.00" />
<rect width="1" height="1" x="19" y="5" fill-opacity="0.18" />
<rect width="1" height="1" x="4" y="6" fill-opacity="0.62" />
<rect width="1" height="1" x="5" y="6" fill-opacity="1.00" />
<rect width="1" height="1" x="6" y="6" fill-opacity="1.00" />
<rect width="1" height="1" x="7" y="6" fill-opacity="1.00" />
<rect width="1" height="1" x="8" y="6" fill-opacity="1.00" />
<rect width="1" height="1" x="9" y="6" fill-opacity="1.00" />
<rect width="1" height="1" x="10" y="6" fill-opacity="0.92" />
<rect width="1" height="1" x="11" y="6" fill-opacity="1.00" />
<rect width="1" height="1" x="12" y="6" fill-opacity="1.00" />
<rect width="1" height="1" x="13" y="6" fill-opacity="1.00" />
<rect width="1" height="1" x="14" y="6" fill-opacity="1.00" />
<rect width="1" height="1" x="15" y="6" fill-opacity="1.00" />
<rect width="1" height="1" x="16" y="6" fill-opacity="1.00" />
<rect width="1" height="1" x="17" y="6" fill-opacity="1.00" />
<rect width="1" height="1" x="18" y="6" fill-opacity="1.00" />
<rect width="1" height="1" x="19" y="6" fill-opacity="0.65" />
<rect width="1" height="1" x="20" y="6" fill-opacity="0.39" />
<rect width="1" height="1" x="21" y="6" fill-opacity="0.36" />
<rect width="1" height="1" x="4" y="7" fill-opacity="0.02" />
<rect width="1" height="1" x="5" y="7" fill-opacity="0.47" />
<rect width="1" height="1" x="6" y="7" fill-opacity="0.95" />
<rect width="1" height="1" x="7" y="7" fill-opacity="1.00" />
<rect width="1" height="1" x="8" y="7" fill-opacity="1.00" />
<rect width="1" height="1" x="9" y="7" fill-opacity="1.00" />
<rect width="1" height="1" x="10" y="7" fill-opacity="1.00" />
<rect width="1" height="1" x="11" y="7" fill-opacity="1.00" />
<rect width="1" height="1" x="12" y="7" fill-opacity="1.00" />
<rect width="1" height="1" x="13" y="7" fill-opacity="1.00" />
<rect width="1" height="1" x="14" y="7" fill-opacity="1.00" />
<rect width="1" height="1" x="15" y="7" fill-opacity="1.00" />
<rect width="1" height="1" x="16" y="7" fill-opacity="1.00" />
<rect width="1" height="1" x="17" y="7" fill-opacity="1.00" />
<rect width="1" height="1" x="18" y="7" fill-opacity="1.00" />
<rect width="1" height="1" x="19" y="7" fill-opacity="0.99" />
<rect width="1" height="1" x="20" y="7" fill-opacity="0.71" />
<rect width="1" height="1" x="21" y="7" fill-opacity="0.26" />
<rect width="1" height="1" x="4" y="8" fill-opacity="0.02" />
<rect width="1" height="1" x="5" y="8" fill-opacity="0.79" />
<rect width="1" height="1" x="6" y="8" fill-opacity="1.00" />
<rect width="1" height="1" x="7" y="8" fill-opacity="1.00" />
<rect width="1" height="1" x="8" y="8" fill-opacity="1.00" />
<rect width="1" height="1" x="9" y="8" fill-opacity="1.00" />
<rect width="1" height="1" x="10" y="8" fill-opacity="1.00" />
<rect width="1" height="1" x="11" y="8" fill-opacity="1.00" />
<rect width="1" height="1" x="12" y="8" fill-opacity="1.00" />
<rect width="1" height="1" x="13" y="8" fill-opacity="1.00" />
<rect width="1" height="1" x="14" y="8" fill-opacity="1.00" />
<rect width="1" height="1" x="15" y="8" fill-opacity="1.00" />
<rect width="1" height="1" x="16" y="8" fill-opacity="1.00" />
<rect width="1" height="1" x="17" y="8" fill-opacity="1.00" />
<rect width="1" height="1" x="18" y="8" fill-opacity="1.00" />
<rect width="1" height="1" x="19" y="8" fill-opacity="1.00" />
<rect width="1" height="1" x="20" y="8" fill-opacity="0.96" />
<rect width="1" height="1" x="21" y="8" fill-opacity="0.55" />
<rect width="1" height="1" x="5" y="9" fill-opacity="0.48" />
<rect width="1" height="1" x="6" y="9" fill-opacity="1.00" />
<rect width="1" height="1" x="7" y="9" fill-opacity="1.00" />
<rect width="1" height="1" x="8" y="9" fill-opacity="1.00" />
<rect width="1" height="1" x="9" y="9" fill-opacity="1.00" />
<rect width="1" height="1" x="10" y="9" fill-opacity="1.00" />
<rect width="1" height="1" x="11" y="9" fill-opacity="1.00" />
<rect width="1" height="1" x="12" y="9" fill-opacity="1.00" />
<rect width="1" height="1" x="13" y="9" fill-opacity="1.00" />
<rect width="1" height="1" x="14" y="9" fill-opacity="1.00" />
<rect width="1" height="1" x="15" y="9" fill-opacity="1.00" />
<rect width="1" height="1" x="16" y="9" fill-opacity="1.00" />
<rect width="1" height="1" x="17" y="9" fill-opacity="1.00" />
<rect width="1" height="1" x="18" y="9" fill-opacity="1.00" />
<rect width="1" height="1" x="19" y="9" fill-opacity="0.73" />
<rect width="1" height="1" x="20" y="9" fill-opacity="0.16" />
<rect width="1" height="1" x="6" y="10" fill-opacity="0.18" />
<rect width="1" height="1" x="7" y="10" fill-opacity="0.86" />
<rect width="1" height="1" x="8" y="10" fill-opacity="1.00" />
<rect width="1" height="1" x="9" y="10" fill-opacity="1.00" />
<rect width="1" height="1" x="10" y="10" fill-opacity="1.00" />
<rect width="1" height="1" x="11" y="10" fill-opacity="1.00" />
<rect width="1" height="1" x="12" y="10" fill-opacity="1.00" />
<rect width="1" height="1" x="13" y="10" fill-opacity="1.00" />
<rect width="1" height="1" x="14" y="10" fill-opacity="1.00" />
<rect width="1" height="1" x="15" y="10" fill-opacity="1.00" />
<rect width="1" height="1" x="16" y="10" fill-opacity="1.00" />
<rect width="1" height="1" x="17" y="10" fill-opacity="1.00" />
<rect width="1" height="1" x="18" y="10" fill-opacity="1.00" />
<rect width="1" height="1" x="19" y="10" fill-opacity="0.38" />
<rect width="1" height="1" x="6" y="11" fill-opacity="0.27" />
<rect width="1" height="1" x="7" y="11" fill-opacity="1.00" />
<rect width="1" height="1" x="8" y="11" fill-opacity="1.00" />
<rect width="1" height="1" x="9" y="11" fill-opacity="1.00" />
<rect width="1" height="1" x="10" y="11" fill-opacity="1.00" />
<rect width="1" height="1" x="11" y="11" fill-opacity="1.00" />
<rect width="1" height="1" x="12" y="11" fill-opacity="1.00" />
<rect width="1" height="1" x="13" y="11" fill-opacity="1.00" />
<rect width="1" height="1" x="14" y="11" fill-opacity="1.00" />
<rect width="1" height="1" x="15" y="11" fill-opacity="1.00" />
<rect width="1" height="1" x="16" y="11" fill-opacity="1.00" />
<rect width="1" height="1" x="17" y="11" fill-opacity="1.00" />
<rect width="1" height="1" x="18" y="11" fill-opacity="0.93" />
<rect width="1" height="1" x="19" y="11" fill-opacity="0.04" />
<rect width="1" height="1" x="7" y="12" fill-opacity="0.32" />
<rect width="1" height="1" x="8" y="12" fill-opacity="0.96" />
<rect width="1" height="1" x="9" y="12" fill-opacity="1.00" />
<rect width="1" height="1" x="10" y="12" fill-opacity="1.00" />
<rect width="1" height="1" x="11" y="12" fill-opacity="1.00" />
<rect width="1" height="1" x="12" y="12" fill-opacity="1.00" />
<rect width="1" height="1" x="13" y="12" fill-opacity="1.00" />
<rect width="1" height="1" x="14" y="12" fill-opacity="1.00" />
<rect width="1" height="1" x="15" y="12" fill-opacity="1.00" />
<rect width="1" height="1" x="16" y="12" fill-opacity="1.00" />
<rect width="1" height="1" x="17" y="12" fill-opacity="1.00" />
<rect width="1" height="1" x="18" y="12" fill-opacity="0.40" />
<rect width="1" height="1" x="0" y="13" fill-opacity="0.21" />
<rect width="1" height="1" x="1" y="13" fill-opacity="0.25" />
<rect width="1" height="1" x="6" y="13" fill-opacity="0.12" />
<rect width="1" height="1" x="7" y="13" fill-opacity="0.73" />
<rect width="1" height="1" x="8" y="13" fill-opacity="1.00" />
<rect width="1" height="1" x="9" y="13" fill-opacity="1.00" />
<rect width="1" height="1" x="10" y="13" fill-opacity="1.00" />
<rect width="1" height="1" x="11" y="13" fill-opacity="1.00" />
<rect width="1" height="1" x="12" y="13" fill-opacity="1.00" />
<rect width="1" height="1" x="13" y="13" fill-opacity="1.00" />
<rect width="1" height="1" x="14" y="13" fill-opacity="1.00" />
<rect width="1" height="1" x="15" y="13" fill-opacity="1.00" />
<rect width="1" height="1" x="16" y="13" fill-opacity="1.00" />
<rect width="1" height="1" x="17" y="13" fill-opacity="0.67" />
<rect width="1" height="1" x="1" y="14" fill-opacity="0.56" />
<rect width="1" height="1" x="2" y="14" fill-opacity="0.75" />
<rect width="1" height="1" x="3" y="14" fill-opacity="0.58" />
<rect width="1" height="1" x="4" y="14" fill-opacity="0.55" />
<rect width="1" height="1" x="5" y="14" fill-opacity="0.68" />
<rect width="1" height="1" x="6" y="14" fill-opacity="0.99" />
<rect width="1" height="1" x="7" y="14" fill-opacity="1.00" />
<rect width="1" height="1" x="8" y="14" fill-opacity="1.00" />
<rect width="1" height="1" x="9" y="14" fill-opacity="1.00" />
<rect width="1" height="1" x="10" y="14" fill-opacity="1.00" />
<rect width="1" height="1" x="11" y="14" fill-opacity="1.00" />
<rect width="1" height="1" x="12" y="14" fill-opacity="1.00" />
<rect width="1" height="1" x="13" y="14" fill-opacity="1.00" />
<rect width="1" height="1" x="14" y="14" fill-opacity="1.00" />
<rect width="1" height="1" x="15" y="14" fill-opacity="1.00" />
<rect width="1" height="1" x="16" y="14" fill-opacity="0.75" />
<rect width="1" height="1" x="17" y="14" fill-opacity="0.04" />
<rect width="1" height="1" x="2" y="15" fill-opacity="0.48" />
<rect width="1" height="1" x="3" y="15" fill-opacity="1.00" />
<rect width="1" height="1" x="4" y="15" fill-opacity="1.00" />
<rect width="1" height="1" x="5" y="15" fill-opacity="1.00" />
<rect width="1" height="1" x="6" y="15" fill-opacity="1.00" />
<rect width="1" height="1" x="7" y="15" fill-opacity="1.00" />
<rect width="1" height="1" x="8" y="15" fill-opacity="1.00" />
<rect width="1" height="1" x="9" y="15" fill-opacity="1.00" />
<rect width="1" height="1" x="10" y="15" fill-opacity="1.00" />
<rect width="1" height="1" x="11" y="15" fill-opacity="1.00" />
<rect width="1" height="1" x="12" y="15" fill-opacity="1.00" />
<rect width="1" height="1" x="13" y="15" fill-opacity="1.00" />
<rect width="1" height="1" x="14" y="15" fill-opacity="1.00" />
<rect width="1" height="1" x="15" y="15" fill-opacity="0.64" />
<rect width="1" height="1" x="16" y="15" fill-opacity="0.02" />
<rect width="1" height="1" x="3" y="16" fill-opacity="0.21" />
<rect width="1" height="1" x="4" y="16" fill-opacity="0.76" />
<rect width="1" height="1" x="5" y="16" fill-opacity="1.00" />
<rect width="1" height="1" x="6" y="16" fill-opacity="1.00" />
<rect width="1" height="1" x="7" y="16" fill-opacity="1.00" />
<rect width="1" height="1" x="8" y="16" fill-opacity="1.00" />
<rect width="1" height="1" x="9" y="16" fill-opacity="1.00" />
<rect width="1" height="1" x="10" y="16" fill-opacity="1.00" />
<rect width="1" height="1" x="11" y="16" fill-opacity="1.00" />
<rect width="1" height="1" x="12" y="16" fill-opacity="1.00" />
<rect width="1" height="1" x="13" y="16" fill-opacity="0.86" />
<rect width="1" height="1" x="14" y="16" fill-opacity="0.32" />
<rect width="1" height="1" x="5" y="17" fill-opacity="0.15" />
<rect width="1" height="1" x="6" y="17" fill-opacity="0.51" />
<rect width="1" height="1" x="7" y="17" fill-opacity="0.73" />
<rect width="1" height="1" x="8" y="17" fill-opacity="0.81" />
<rect width="1" height="1" x="9" y="17" fill-opacity="0.95" />
<rect width="1" height="1" x="10" y="17" fill-opacity="0.79" />
<rect width="1" height="1" x="11" y="17" fill-opacity="0.58" />
<rect width="1" height="1" x="12" y="17" fill-opacity="0.28" />
</svg>
